<?xml version="1.0" standalone="no"?><!DOCTYPE svg PUBLIC "-//W3C//DTD SVG 1.1//EN" "http://www.w3.org/Graphics/SVG/1.1/DTD/svg11.dtd"><svg width="32" height="32" viewBox="0 0 32 32" version="1.1" xmlns="http://www.w3.org/2000/svg" xmlns:xlink="http://www.w3.org/1999/xlink"><defs><style type="text/css"><![CDATA[
@font-face { font-family: ifont; src: url("http://at.alicdn.com/t/font_1442373896_4754455.eot?#iefix") format("embedded-opentype"), url("http://at.alicdn.com/t/font_1442373896_4754455.woff") format("woff"), url("http://at.alicdn.com/t/font_1442373896_4754455.ttf") format("truetype"), url("http://at.alicdn.com/t/font_1442373896_4754455.svg#ifont") format("svg"); }

]]></style></defs><g class="transform-group"><g transform="scale(0.03125, 0.03125)"><path d="M635.903961 520.225335c13.4575-3.835352 26.374694-7.680936 38.753629-11.516288 10.759041-3.278673 21.797445-6.573719 33.098839-9.859555 11.301394-3.295046 20.727067-6.308683 28.260647-9.04705l-11.301394 43.580564c-3.234671 12.048407-6.189979 21.101597-8.882298 27.127847-5.383614 14.802124-11.706623 28.501124-18.97312 41.11542-7.269567 12.607132-14.125719 23.560602-20.585851 32.879851-7.53972 10.959609-15.343453 21.103644-23.412223 30.422893l-99.310843 30.416753 81.548294 14.805194c-10.766205 9.31925-22.339798 18.906605-34.720779 28.766161-10.766205 8.221242-23.00597 16.85897-36.729529 25.898857-13.736862 9.04398-28.126594 17.400299-43.198871 25.087375-15.07023 7.671727-31.888268 11.641131-50.457182 11.909238-18.570961 0.288572-36.202527-0.956791-52.888558-3.695159-19.378349-2.738367-38.753629-7.392364-58.130955-13.973246 5.92699-9.31925 12.388145-19.73139 19.378349-31.238468 5.92699-9.877975 13.05534-21.520129 21.393239-34.95 8.346085-13.431917 17.0974-28.369118 26.249851-44.805462 25.831318-44.394093 50.864458-87.974657 75.087139-130.723274 24.218588-42.75578 46.006823-81.400938 65.391313-115.934452 22.069645-40.003086 43.330878-77.825506 63.785745-113.457028-25.302269 29.600155-51.940976 62.762439-79.928401 99.490945-24.223704 31.232328-51.141774 68.372204-80.741929 111.394043-29.600155 43.023886-59.744709 90.031503-90.424452 141.008524-6.461155 10.402931-13.727653 22.469758-21.797445 36.174897-8.083096 13.70514-16.551978 28.227901-25.434276 43.571355-8.873088 15.3455-18.035772 31.107485-27.451212 47.284933-9.41851 16.168238-18.702967 31.921014-27.849278 47.273676-21.540595 35.624359-43.601031 72.897264-66.212004 111.809505 0.543376-11.510148 2.698458-26.305109 6.461155-44.396139 3.225461-15.3455 8.610098-34.540677 16.149818-57.551764 7.53972-23.026436 18.291598-50.154283 32.292474-81.400938 9.146311-19.73139 16.149818-35.07689 20.99108-46.036499 4.841262-10.959609 8.610098-19.456121 11.301394-25.487487 2.692319-6.582929 4.848425-10.959609 6.461155-13.150508-2.692319-3.295046-3.225461-9.868765-1.612731-19.738553 1.079588-8.769734 4.173043-21.503756 9.284457-38.228673 5.111414-16.717753 13.855566-40.151465 26.233478-70.300113 12.380982-30.691 28.672016-63.712067 48.846498-99.06832 20.184715-35.359322 42.926672-70.434166 68.222801-105.242949 25.302269-34.801621 52.756551-68.511373 82.356706-101.115955 29.600155-32.620955 59.875692-61.530378 90.832751-86.745666 30.942733-25.215288 61.893652-45.909609 92.836385-62.077847 30.959106-16.168238 60.962443-25.339108 90.028433-27.544333 0.534166 19.188015-1.349741 44.537356-5.65479 76.058257-4.307096 31.506575-9.688663 65.216327-16.151865 101.125165-6.453992 35.899628-13.71435 72.346725-21.797445 109.337197-8.066723 37.003775-15.877619 70.581522-23.400966 100.732216L635.903961 520.225335zM635.903961 520.225335" fill="#272636"></path></g></g></svg>